<?xml version="1.0" standalone="no"?><!DOCTYPE svg PUBLIC "-//W3C//DTD SVG 1.1//EN" "http://www.w3.org/Graphics/SVG/1.1/DTD/svg11.dtd"><svg t="1591726151529" class="icon" viewBox="0 0 1180 1024" version="1.1" xmlns="http://www.w3.org/2000/svg" p-id="8517" xmlns:xlink="http://www.w3.org/1999/xlink" width="36.875" height="32"><defs><style type="text/css"></style></defs><path d="M1163.636364 1023.96897 1024 1023.96897 806.787879 1023.96897 744.727273 1023.96897 558.545455 1023.96897 341.333333 1023.96897 155.151515 1023.96897 15.515152 1023.96897C6.950788 1023.96897 0 1017.049212 0 1008.484848L0 977.454545C0 968.859152 6.950788 961.939394 15.515152 961.939394L93.090909 961.939394C93.090909 961.939394 93.090909 961.908364 93.090909 961.908364L93.090909 62.029576C93.090909 27.772121 120.86303-0.03103 155.151515-0.03103L744.727273-0.03103C778.984727-0.03103 806.787879 27.772121 806.787879 62.029576L806.787879 217.181091 1024 217.181091C1058.257455 217.181091 1086.060606 244.984242 1086.060606 279.241697L1086.060606 961.908364C1086.060606 961.908364 1086.060606 961.939394 1086.060606 961.939394L1163.636364 961.939394C1172.200727 961.939394 1179.151515 968.859152 1179.151515 977.454545L1179.151515 1008.484848C1179.151515 1017.049212 1172.200727 1023.96897 1163.636364 1023.96897ZM341.333333 961.939394 558.545455 961.939394 558.545455 651.605333 341.333333 651.605333 341.333333 961.939394ZM744.727273 961.908364 744.727273 279.241697 744.727273 62.029576 155.151515 62.029576 155.151515 961.939394 279.272727 961.939394C279.272727 961.939394 279.272727 961.908364 279.272727 961.908364L279.272727 651.636364C279.272727 617.347879 307.044848 589.575758 341.333333 589.575758L558.545455 589.575758C592.802909 589.575758 620.606061 617.347879 620.606061 651.636364L620.606061 961.908364C620.606061 961.908364 620.606061 961.939394 620.606061 961.939394L744.727273 961.939394 744.727273 961.908364ZM1024 279.241697 806.787879 279.241697 806.787879 961.939394 1024 961.939394 1024 279.241697ZM248.242424 418.878061 248.242424 387.847758C248.242424 379.283394 255.193212 372.332606 263.757576 372.332606L636.121212 372.332606C644.685576 372.332606 651.636364 379.283394 651.636364 387.847758L651.636364 418.878061C651.636364 427.442424 644.685576 434.393212 636.121212 434.393212L263.757576 434.393212C255.193212 434.393212 248.242424 427.442424 248.242424 418.878061ZM636.121212 248.211394 263.757576 248.211394C255.193212 248.211394 248.242424 241.291636 248.242424 232.727273L248.242424 201.69697C248.242424 193.101576 255.193212 186.181818 263.757576 186.181818L636.121212 186.181818C644.685576 186.181818 651.636364 193.101576 651.636364 201.69697L651.636364 232.727273C651.636364 241.291636 644.685576 248.211394 636.121212 248.211394Z" p-id="8518" fill="#1296db"></path></svg>