<?xml version="1.0" standalone="no"?><!DOCTYPE svg PUBLIC "-//W3C//DTD SVG 1.1//EN" "http://www.w3.org/Graphics/SVG/1.1/DTD/svg11.dtd"><svg t="1591717065778" class="icon" viewBox="0 0 1024 1024" version="1.1" xmlns="http://www.w3.org/2000/svg" p-id="4483" xmlns:xlink="http://www.w3.org/1999/xlink" width="32" height="32"><defs><style type="text/css"></style></defs><path d="M847 131.2c25.3 0 45.8 20.6 45.8 45.8v479.5c0 25.3-20.6 45.8-45.8 45.8v67.2c62.4 0 113-50.6 113-113V177c0-62.4-50.6-113-113-113H177c-62.4 0-113 50.6-113 113v479.5c0 62.4 50.6 113 113 113v-67.2c-25.3 0-45.8-20.6-45.8-45.8V177c0-25.3 20.6-45.8 45.8-45.8h670" fill="#707070" p-id="4484"></path><path d="M319.4 444.8m-60 0a60 60 0 1 0 120 0 60 60 0 1 0-120 0Z" fill="#707070" p-id="4485"></path><path d="M512 444.8m-60 0a60 60 0 1 0 120 0 60 60 0 1 0-120 0Z" fill="#707070" p-id="4486"></path><path d="M704.6 444.8m-60 0a60 60 0 1 0 120 0 60 60 0 1 0-120 0Z" fill="#707070" p-id="4487"></path><path d="M512.1 960c-24.5 0-46.6-12.6-59-33.7l-92.8-156.7H177v-67.2h221.5l112.4 189.7h2.4l112.1-189.7H847v67.2H663.8l-92.6 156.7c-12.5 21.1-34.5 33.7-59.1 33.7z" fill="#707070" p-id="4488"></path></svg>