<?xml version="1.0" standalone="no"?><!DOCTYPE svg PUBLIC "-//W3C//DTD SVG 1.1//EN" "http://www.w3.org/Graphics/SVG/1.1/DTD/svg11.dtd"><svg t="1591726029677" class="icon" viewBox="0 0 1025 1024" version="1.1" xmlns="http://www.w3.org/2000/svg" p-id="6478" xmlns:xlink="http://www.w3.org/1999/xlink" width="32.03125" height="32"><defs><style type="text/css"></style></defs><path d="M988.720263 215.032006l-201.442623 191.850117L608.217531 576.349727l188.652615-111.912569L864.017687 889.704918s19.185012 57.555035-12.790008 89.530055c-31.97502 31.97502-57.555035 63.950039-111.912568-28.777518-47.962529-86.332553-166.270101-290.972678-185.455113-322.947697L416.367414 758.607338c-3.197502 3.197502-6.395004 6.395004-12.790008 9.592506l-28.777518 230.22014s-22.382514 44.765027-44.765027 9.592506c-25.580016-35.172521-115.11007-198.245121-115.11007-198.245121S48.654689 717.039813 13.482168 691.459797c-35.172521-25.580016 9.592506-47.962529 9.592506-47.962529l233.417642-22.382514 9.592506-9.592506 131.09758-137.492584c-31.97502-19.185012-236.615144-134.295082-322.947697-185.455113C-18.492852 234.217018 13.482168 208.637002 45.457187 176.661983c31.97502-31.97502 89.530055-12.790008 89.530055-12.790008l486.020297 73.542545 191.850117-201.442623c47.962529-47.962529 127.900078-47.962529 175.862607 0 47.962529 51.160031 47.962529 131.09758 0 179.060109z" fill="#1296db" p-id="6479"></path></svg>