<?xml version="1.0" standalone="no"?><!DOCTYPE svg PUBLIC "-//W3C//DTD SVG 1.1//EN" "http://www.w3.org/Graphics/SVG/1.1/DTD/svg11.dtd"><svg t="1591717291704" class="icon" viewBox="0 0 1024 1024" version="1.1" xmlns="http://www.w3.org/2000/svg" p-id="5372" xmlns:xlink="http://www.w3.org/1999/xlink" width="32" height="32"><defs><style type="text/css"></style></defs><path d="M385.74 898.74H180.57c-9.57 0-19.47 0.61-29.1-0.12a65.89 65.89 0 0 1-7.93-2.16 62.66 62.66 0 0 1-6-3.43c-0.37-0.24-0.73-0.5-1.09-0.75-1.1-1-2.28-2.23-2.4-2.34-1-1-1.89-2.13-2.86-3.16a60.58 60.58 0 0 1-3.66-6.34 63.62 63.62 0 0 1-2.12-7.76c-0.57-7.83-0.16-15.84-0.16-23.63V642.48c0-15.73-13.83-30.79-30.06-30.06s-30.06 13.2-30.06 30.06v226.06a91.22 91.22 0 0 0 19.32 55.52c13 16.88 32.64 29.68 53.92 33.06a137.75 137.75 0 0 0 21.86 1.74H276c36 0 71.94 0.32 107.9 0h1.81c15.72 0 30.79-13.83 30.06-30.06s-13.18-30.06-30.03-30.06z m-248.77-6a9.84 9.84 0 0 1 1.41 1.1c-0.09 0.1-0.69-0.4-1.38-1.07zM958.83 644.32v-1.84c0-15.73-13.82-30.79-30.05-30.06s-30.06 13.2-30.06 30.06v201.25c0 9.47 0.6 19.27-0.13 28.8a63.94 63.94 0 0 1-2.16 7.92 59.39 59.39 0 0 1-3.42 6l-0.75 1.09c-1 1.1-2.24 2.28-2.35 2.4-1 1-2.12 1.89-3.15 2.86a59.71 59.71 0 0 1-6.35 3.66 63 63 0 0 1-7.75 2.12c-7.74 0.56-15.67 0.16-23.38 0.16h-206c-15.72 0-30.78 13.83-30.05 30.06s13.2 30.06 30.05 30.06h215.14c21.27 0 42.61-2.52 60.49-15.4 18.37-13.22 32.91-31.93 37.59-54.5a118.05 118.05 0 0 0 2.33-24.21V751.08c0-35.58 0.38-71.18 0-106.76zM892.75 887a10.44 10.44 0 0 1 1.1-1.41c0.06 0.11-0.44 0.71-1.1 1.41zM641.56 125.26h202.19c9.45 0 19.24-0.6 28.76 0.13a63.79 63.79 0 0 1 7.91 2.16 58.31 58.31 0 0 1 6 3.42c0.37 0.24 0.74 0.5 1.1 0.75 1.1 1.05 2.28 2.23 2.39 2.35 1 1 1.9 2.12 2.87 3.15a61.48 61.48 0 0 1 3.66 6.35 62.8 62.8 0 0 1 2.12 7.77c0.59 8 0.16 16.18 0.16 24.14V386c0 15.72 13.82 30.79 30.06 30.06s30.05-13.21 30.05-30.06V167.4c0-20.49-1.81-40.4-12.87-58.53-17.33-28.4-47.7-43.73-80.53-43.73H752.11c-36.23 0-72.48-0.32-108.7 0h-1.85c-15.72 0-30.78 13.83-30 30.06s13.15 30.06 30 30.06z m245.44 6a10.19 10.19 0 0 1-1.42-1.1c0.1-0.09 0.69 0.41 1.42 1.07zM65.13 386c0 15.7 13.87 30.77 30.06 30s30.06-13.21 30.06-30.06V180.8c0-9.63-0.62-19.62 0.12-29.31a65.89 65.89 0 0 1 2.16-7.93 60.31 60.31 0 0 1 3.43-6c0.24-0.37 0.5-0.74 0.75-1.1 1-1.1 2.23-2.28 2.34-2.39 1-1 2.13-1.9 3.16-2.87a62.4 62.4 0 0 1 6.34-3.66 63.28 63.28 0 0 1 7.77-2.12c7.89-0.58 16-0.16 23.84-0.16h207.91c15.72 0 30.79-13.82 30.06-30.06s-13.21-30.06-30.06-30.06H165c-22.08 0-43.84 3.2-62.07 17-18.08 13.66-32.09 32.83-36 55.6a130.46 130.46 0 0 0-1.84 22.35v116.06c0 36-0.3 72 0 107.92 0.05 0.64 0.04 1.28 0.04 1.93z m66.09-249a11.17 11.17 0 0 1-1.1 1.42c-0.07-0.12 0.44-0.71 1.1-1.42zM811.5 542.06h1.06c15.72 0 30.78-13.83 30.06-30.06s-13.21-30.06-30.06-30.06H285.21c-24.24 0-48.51-0.4-72.74 0h-1.06c-15.72 0-30.79 13.83-30.06 30.06s13.21 30.06 30.06 30.06h527.35c24.24 0 48.51 0.4 72.74 0z" p-id="5373" fill="#1296db"></path></svg>