<?xml version="1.0" standalone="no"?><!DOCTYPE svg PUBLIC "-//W3C//DTD SVG 1.1//EN" "http://www.w3.org/Graphics/SVG/1.1/DTD/svg11.dtd"><svg t="1591716488483" class="icon" viewBox="0 0 1024 1024" version="1.1" xmlns="http://www.w3.org/2000/svg" p-id="2638" width="32" height="32" xmlns:xlink="http://www.w3.org/1999/xlink"><defs><style type="text/css"></style></defs><path d="M864 800l-179.2-179.2c32-44.8 51.2-99.2 51.2-156.8C736 313.6 614.4 192 464 192S192 313.6 192 464 313.6 736 464 736c57.6 0 112-19.2 156.8-51.2L800 864c16 16 44.8 16 64 0l0 0C883.2 844.8 883.2 819.2 864 800zM464 672C348.8 672 256 579.2 256 464S348.8 256 464 256s208 92.8 208 208S579.2 672 464 672z" p-id="2639" fill="#707070"></path></svg>