<?xml version="1.0" standalone="no"?><!DOCTYPE svg PUBLIC "-//W3C//DTD SVG 1.1//EN" "http://www.w3.org/Graphics/SVG/1.1/DTD/svg11.dtd"><svg t="1591726229909" class="icon" viewBox="0 0 1024 1024" version="1.1" xmlns="http://www.w3.org/2000/svg" p-id="8803" xmlns:xlink="http://www.w3.org/1999/xlink" width="32" height="32"><defs><style type="text/css"></style></defs><path d="M376.32 843.776h300.544c9.216 0 16.896 7.68 16.896 16.896v16.896c0 9.216-7.68 16.896-16.896 16.896h-300.544c-9.216 0-16.896-7.68-16.896-16.896v-16.896c0-9.216 7.68-16.896 16.896-16.896z m333.824-323.072c-27.648 0-50.176 23.04-50.176 51.2s22.528 51.2 50.176 51.2 50.176-23.04 50.176-51.2-22.528-51.2-50.176-51.2z m50.176-221.184c0-18.944-14.848-34.304-33.28-34.304h-400.896c-18.432 0-33.28 15.36-33.28 34.304v136.192c0 18.944 14.848 34.304 33.28 34.304h400.896c18.432 0 33.28-15.36 33.28-34.304v-136.192z m-417.792 323.584c27.648 0 50.176-23.04 50.176-51.2s-22.528-51.2-50.176-51.2-50.176 23.04-50.176 51.2c0.512 28.16 22.528 51.2 50.176 51.2z m502.272 301.056c-15.36 8.704-34.304 3.584-43.008-11.776l-68.608-120.832c-5.632 1.024-11.776 1.536-17.408 1.536H337.92c-6.144 0-11.776-0.512-17.408-1.536l-68.608 120.832c-8.704 15.36-28.16 20.48-43.008 11.776-15.36-8.704-20.48-28.672-11.776-44.032l64-112.64c-33.792-24.576-54.272-65.536-51.2-111.104l24.064-366.592c4.096-61.44 43.008-110.08 109.056-110.08h100.352c0-47.104 37.376-84.992 83.456-84.992s83.456 37.888 83.456 84.992h116.736c66.56 0 88.064 48.64 92.16 110.08l24.064 366.592c3.072 45.568-17.408 86.528-51.2 111.104l64 112.64c8.704 15.872 3.584 35.328-11.264 44.032z" fill="#1296db" p-id="8804"></path></svg>