<?xml version="1.0" standalone="no"?><!DOCTYPE svg PUBLIC "-//W3C//DTD SVG 1.1//EN" "http://www.w3.org/Graphics/SVG/1.1/DTD/svg11.dtd"><svg t="1591714760289" class="icon" viewBox="0 0 1024 1024" version="1.1" xmlns="http://www.w3.org/2000/svg" p-id="8989" xmlns:xlink="http://www.w3.org/1999/xlink" width="32" height="32"><defs><style type="text/css"></style></defs><path d="M730.205415 740.436312c62.030149 14.810623 97.207748 35.822364 97.207748 50.102004 0 32.465795-130.925145 69.956961-290.314752 69.956961-159.408571 0-290.314752-37.51013-290.314752-69.956961 0-21.504796 68.705359-50.614023 172.34179-63.167969 10.126597-1.213675 17.351754-10.430016 16.119116-20.53765-1.232638-10.126597-10.44898-17.313826-20.53765-16.100152-123.131079 14.924405-204.826549 49.552057-204.826549 99.786807 0 65.159154 145.603022 106.84129 327.237009 106.84129 181.615023 0 327.218045-41.682136 327.218045-106.84129 0-39.00826-47.371236-67.302048-125.558428-85.943331-9.899033-2.389422-19.873921 3.735842-22.225416 13.653839C714.181118 728.128894 720.306382 738.084818 730.205415 740.436312z" p-id="8990" fill="#707070"></path><path d="M666.809882 727.029001c2.69284 0.322382 5.252935 0.625801 9.424942 1.194711 10.08867 1.327457 19.380866-5.764954 20.727286-15.853624 1.34642-10.107634-5.745991-19.361902-15.853624-20.708323-4.342679-0.587874-7.054483-0.92922-9.955924-1.270566-10.126597-1.194711-19.305011 6.030446-20.518686 16.138079C649.439164 716.67484 656.664321 725.83429 666.809882 727.029001z" p-id="8991" fill="#707070"></path><path d="M537.117375 164.244305c-131.038927 0-237.42509 106.196526-237.42509 237.235453 0 41.720064 10.809289 81.733398 30.910774 117.195452 0.189637 0.379273 0.379273 0.56891 0.56891 0.758547 0.379273 1.896367 1.13782 3.792733 2.086003 5.499463l188.498833 307.021742c7.016556 11.378199 23.704582 11.378199 30.721138 0l188.11956-306.452832c0.948183-1.517093 1.70673-3.223823 1.896367-4.930553 0 0 0.189637 0 0.189637-0.189637 20.670395-35.841327 31.858958-76.613208 31.858958-118.902182C774.542465 270.440831 668.137338 164.244305 537.117375 164.244305zM711.564132 502.366458c-0.948183 1.327457-1.517093 3.034186-1.70673 4.361643l-0.189637 0.379273-172.569354 281.04152-173.327901-281.989703 0-0.189637c-0.379273-1.70673-0.948183-3.41346-1.896367-5.12019-17.256935-29.962591-26.359495-63.907552-26.359495-99.369606 0-111.127079 90.267047-201.394126 201.583762-201.394126 111.316715 0 201.583762 90.07741 201.583762 201.394126C738.701137 437.510723 729.219304 472.024594 711.564132 502.366458z" p-id="8992" fill="#707070"></path><path d="M656.948776 409.785844c0-65.879773-53.458573-119.262491-119.35731-119.262491-65.917701 0-119.395237 53.401682-119.395237 119.262491s53.458573 119.243528 119.395237 119.243528C603.490203 529.029371 656.948776 475.665617 656.948776 409.785844zM621.050557 409.785844c0 46.062743-37.358421 83.383236-83.459091 83.383236-46.119634 0-83.515982-37.339457-83.515982-83.383236s37.396348-83.4022 83.515982-83.4022C583.654209 326.383644 621.050557 363.742065 621.050557 409.785844z" p-id="8993" fill="#707070"></path></svg>