<?xml version="1.0" standalone="no"?><!DOCTYPE svg PUBLIC "-//W3C//DTD SVG 1.1//EN" "http://www.w3.org/Graphics/SVG/1.1/DTD/svg11.dtd"><svg t="1591714569554" class="icon" viewBox="0 0 1024 1024" version="1.1" xmlns="http://www.w3.org/2000/svg" p-id="5867" xmlns:xlink="http://www.w3.org/1999/xlink" width="200" height="200"><defs><style type="text/css"></style></defs><path d="M511 84.2c104.9 0 190.2 85.3 190.2 190.2S615.9 464.6 511 464.6c-104.9 0-190.2-85.3-190.2-190.2S406.1 84.2 511 84.2z m156.4 369.1c28.8 8.7 54.6 20.2 77.2 34.4 52.5 33 115.1 97.9 115.1 219.9v74H162.3v-74c0-122 62.6-187 115.1-219.9 22.6-14.2 48.4-25.7 77.2-34.4 41.8 36.6 96.6 58.8 156.4 58.8 59.8 0 114.6-22.2 156.4-58.8z" p-id="5868" fill="#707070"></path></svg>